<svg id="Layer_2" data-name="Layer 2" xmlns="http://www.w3.org/2000/svg" xmlns:xlink="http://www.w3.org/1999/xlink" viewBox="0 0 2000 2000"><defs><style>.cls-1{fill:url(#New_Pattern_2);}.cls-2,.cls-8{fill:none;}.cls-3,.cls-5,.cls-6,.cls-7,.cls-9{fill:#1d1d1b;}.cls-3,.cls-5,.cls-7,.cls-8,.cls-9{stroke:#1d1d1b;stroke-miterlimit:10;}.cls-4{fill:#706f6f;}.cls-5{stroke-width:1.31px;}.cls-7,.cls-8{stroke-width:2.16px;}.cls-9{stroke-width:1.1px;}.cls-10{fill:url(#New_Pattern_2-3);}.cls-11{clip-path:url(#clip-path);}</style><pattern id="New_Pattern_2" data-name="New Pattern 2" width="1000" height="750" patternTransform="translate(-277.99 878.45)" patternUnits="userSpaceOnUse" viewBox="0 0 1000 750"><rect class="cls-2" width="1000" height="750"/><path class="cls-3" d="M413.43,118.47s48,38,55,52,30,28,43,5,46-44,76-48,17-20,0-13-50,7-83,47c0,0-2-39,9-89s-15-20-14,0-10,89-14,93S415.43,89.47,413.43,118.47Z"/><path class="cls-4" d="M446.62,119.93s22.94,10,44.69-22.63l-5.47,67.29Z"/><path class="cls-4" d="M515.76,106.36s1.34,15.82,24.53,18.1l-34.38,31.07Z"/><path class="cls-5" d="M122.76,370.38s5.25,59.18,36.81,59.18,34.19-7.89,51.29-29.59,21-27,25-51.94c0,0-18.41,21-26.3,26.3s-10.52-2.63-3.94-17.1,25-31.55,21-57.85-11.84,11.83-14.47,18.41S192.45,348,192.45,348s-10.52,14.46-6.58-13.15,11.84-39.45,6.58-52.6-13.15-7.89-13.15-7.89,5.26,5.26,0,22.36-9.21,47.34-9.21,47.34-7.89,10.51-13.15-13.15-11.83-57.59-11.83-57.59-11.84,10.25-7.89,30,11.83,41,6.57,48.14-9.2.51-13.15-11.32-15.77-18.41-17.09-32.87C113.55,307.27,100.8,316.47,122.76,370.38Z"/><path class="cls-6" d="M126.23,165.76s7-38,35-42,26,2,46,21,14,38-7,34-27-16.92-51,.54C149.23,179.3,129.23,179.76,126.23,165.76Z"/><ellipse class="cls-6" cx="117.91" cy="114.51" rx="20.91" ry="17.81" transform="translate(-42.01 152.49) rotate(-57.52)"/><ellipse class="cls-6" cx="152.48" cy="86.63" rx="20.91" ry="17.81" transform="translate(-2.48 168.74) rotate(-57.52)"/><ellipse class="cls-6" cx="191.17" cy="86.63" rx="17.81" ry="20.91" transform="translate(-18.64 81.22) rotate(-22.9)"/><ellipse class="cls-6" cx="222.98" cy="118.45" rx="17.81" ry="20.91" transform="translate(-24.51 168.46) rotate(-39.4)"/><path class="cls-6" d="M851.83,68.45,843,88.94l-16.24,37.5-16.24-37.5-8.87-20.49c-13.73,10.73-22.89,30-22.89,52,0,33.69,21.49,61,48,61s48-27.31,48-61C874.72,98.45,865.56,79.18,851.83,68.45Z"/><path class="cls-6" d="M467.73,618.15s19.42,24.61,27.19,44,23.31,20.72,24.6,36.25,58.27,3.89,47.91-23.3c0,0,1.3-13-9.06-32.37s-7.77-45.33-7.77-45.33-10.36-11.65-25.9,0c0,0-18.12-37.55-37.55-15.53S469,602.61,467.73,618.15Z"/><ellipse class="cls-6" cx="465.66" cy="579.31" rx="14.24" ry="6.47" transform="translate(-269.98 685.49) rotate(-59.42)"/><ellipse class="cls-6" cx="472.97" cy="550.86" rx="14.24" ry="6.47" transform="matrix(0.4, -0.92, 0.92, 0.4, -220.01, 767.51)"/><ellipse class="cls-6" cx="491.09" cy="541.8" rx="14.24" ry="6.47" transform="translate(-112.44 954.67) rotate(-82.19)"/><ellipse class="cls-6" cx="513.73" cy="547.39" rx="14.24" ry="6.47" transform="translate(-52.92 1039.79) rotate(-87.81)"/><ellipse class="cls-6" cx="533.72" cy="572.73" rx="17.49" ry="7.95" transform="translate(-59.02 1084.14) rotate(-87.81)"/><path class="cls-6" d="M443.13,554.27a10.08,10.08,0,0,1,2.69,1.48,14.41,14.41,0,0,1,2.15,2,15,15,0,0,1,1.74,2.35,9.88,9.88,0,0,1,1.19,2.83,9.71,9.71,0,0,1-2.7-1.47,15.59,15.59,0,0,1-2.15-2,15,15,0,0,1-1.74-2.34A10.22,10.22,0,0,1,443.13,554.27Z"/><path class="cls-6" d="M454.78,524.06a9.21,9.21,0,0,1,2.28,1.86,14,14,0,0,1,2.81,4.74,9.16,9.16,0,0,1,.52,2.89,9,9,0,0,1-2.28-1.85,13.94,13.94,0,0,1-2.8-4.75A9.21,9.21,0,0,1,454.78,524.06Z"/><path class="cls-6" d="M479.38,515.86a7.44,7.44,0,0,1,2,1.7,10.91,10.91,0,0,1,1.33,2,10.42,10.42,0,0,1,.83,2.29,7.41,7.41,0,0,1,.17,2.61,7.44,7.44,0,0,1-2-1.7,10.66,10.66,0,0,1-1.33-2,11.08,11.08,0,0,1-.83-2.28A7.42,7.42,0,0,1,479.38,515.86Z"/><path class="cls-6" d="M505.71,522.33a5.11,5.11,0,0,1,1.76,1.14,6.22,6.22,0,0,1,1.73,3.24,5.15,5.15,0,0,1,0,2.1,5.16,5.16,0,0,1-1.77-1.14,6.3,6.3,0,0,1-1.72-3.24A5.15,5.15,0,0,1,505.71,522.33Z"/><path class="cls-6" d="M538.08,541.8a6.76,6.76,0,0,1,.45,2.5,9.52,9.52,0,0,1-.27,2.33,9.37,9.37,0,0,1-.8,2.2,7.14,7.14,0,0,1-1.53,2,6.76,6.76,0,0,1-.45-2.5,9.06,9.06,0,0,1,.27-2.33,9.57,9.57,0,0,1,.81-2.2A6.92,6.92,0,0,1,538.08,541.8Z"/><path class="cls-6" d="M443.93,394s27,48,64,30,43-29,44-55V355s-31,6-44-21c0,0-16,7-25,0,0,0-6,16-17,17C465.93,351,471.93,381,443.93,394Z"/><path class="cls-6" d="M433.27,371.93c1.65,5.13,4.46,10,8.72,13.32a6.83,6.83,0,0,0,3.3,1.59c1.82.2,3.53-.81,5-1.9a26.43,26.43,0,0,0,8.79-10.68,17.84,17.84,0,0,0,.32-13.63,23.15,23.15,0,0,0-2.41-4.18,25.55,25.55,0,0,0-7.52-7.52,13.29,13.29,0,0,0-10.27-1.73C427.4,350.54,430.44,363.07,433.27,371.93Z"/><path class="cls-6" d="M453.21,310.81c3.44-2.18,7.85-3.86,11.48-2s4.87,6.32,5.74,10.3l2.25,10.28a20.59,20.59,0,0,1,.69,5.57c-.32,5.18-4.72,9.49-9.72,10.91s-10.4.4-15.24-1.49c-3.67-1.43-7.28-3.48-9.46-6.77C432.34,327.6,445.66,315.59,453.21,310.81Z"/><path class="cls-6" d="M479.64,317.12a42.07,42.07,0,0,0,6.29,9.27c2.62,2.68,6.15,4.68,9.89,4.65,5.21-.05,9.57-3.87,12.9-7.87s6.22-8.58,7-13.73-1-10.91-5.28-13.8a15.84,15.84,0,0,0-4.87-2A29.44,29.44,0,0,0,483.41,297c-2.64,1.58-7.64,4.79-8.58,7.93C473.61,309,477.71,313.64,479.64,317.12Z"/><path class="cls-6" d="M518,326.58l1.82,5.91a29.62,29.62,0,0,0,2.59,6.54,21,21,0,0,0,5,5.53c3,2.42,6.56,4.4,10.42,4.66s8-1.55,9.7-5c1.34-2.8.92-6.09.47-9.16-.54-3.67-1.11-7.43-2.91-10.68a25.58,25.58,0,0,0-3.67-4.82,28.59,28.59,0,0,0-8-6.47,12.83,12.83,0,0,0-10-.92C517.45,314.38,516.36,321.16,518,326.58Z"/><ellipse class="cls-6" cx="781.73" cy="355.01" rx="21.42" ry="16.48" transform="translate(214.81 999.79) rotate(-73.1)"/><ellipse class="cls-6" cx="814.59" cy="322.64" rx="16.48" ry="21.42"/><ellipse class="cls-6" cx="851.81" cy="325.17" rx="16.48" ry="21.42"/><ellipse class="cls-6" cx="884.19" cy="362.27" rx="21.42" ry="16.48" transform="translate(373 1169.57) rotate(-79.94)"/><path class="cls-6" d="M781.73,399S784,384.74,804.91,376a35.47,35.47,0,0,0,15.38-13.68c6-9.93,26.8-11.58,31.52,3.8,0,0,6.81,11.53,16.48,18.67s35.48,21.42,3.07,36.8c0,0-10.43,3.84-30.75-5,0,0-8.65-4.91-26,5.78S775.29,410.66,781.73,399Z"/><path class="cls-6" d="M780.58,316.09a14.56,14.56,0,0,1,1.72,4.49,22,22,0,0,1,.48,4.48,21.24,21.24,0,0,1-.47,4.48,14.35,14.35,0,0,1-1.73,4.49,14.35,14.35,0,0,1-1.73-4.49,21.24,21.24,0,0,1-.47-4.48,22,22,0,0,1,.48-4.48A14.56,14.56,0,0,1,780.58,316.09Z"/><path class="cls-6" d="M811.5,277.1a15.52,15.52,0,0,1,1.72,4.67,22.37,22.37,0,0,1,.48,4.67,23,23,0,0,1-.47,4.66,15.19,15.19,0,0,1-1.73,4.67,15.46,15.46,0,0,1-1.73-4.67,22.32,22.32,0,0,1-.46-4.66,23.05,23.05,0,0,1,.47-4.67A15.52,15.52,0,0,1,811.5,277.1Z"/><path class="cls-6" d="M851.81,279.3a12.62,12.62,0,0,1,1.72,4.12,17.47,17.47,0,0,1,.48,4.11,18,18,0,0,1-.47,4.12,12.44,12.44,0,0,1-1.73,4.12,12.41,12.41,0,0,1-1.72-4.12,17,17,0,0,1-.47-4.12,18,18,0,0,1,.47-4.11A12.62,12.62,0,0,1,851.81,279.3Z"/><path class="cls-6" d="M893.33,322.64a11.31,11.31,0,0,1,1.44,4,16.08,16.08,0,0,1-.54,7.71,11.34,11.34,0,0,1-2,3.73,11.54,11.54,0,0,1-1.45-4,16.06,16.06,0,0,1,.56-7.7A11.54,11.54,0,0,1,893.33,322.64Z"/><path class="cls-7" d="M142.6,661.26s-15.1,18.33,0,23.72,71.16,4.32,49.6-17.25S173.87,633.23,142.6,661.26Z"/><path class="cls-8" d="M135.89,578.24"/><path class="cls-7" d="M112.63,628.81a40,40,0,0,0,4,17c1.91,3.95,4.69,7.75,8.75,9.43,7.15,3,15.13-1.65,20.91-6.81,1.7-1.52,3.42-3.25,3.88-5.48.63-3.07-1.3-6-3.13-8.58-4.33-6-9.08-12.37-16.06-14.89s-16.59,1-17.43,8.4"/><path class="cls-7" d="M134.28,585.49c-1,4.44-2,9-1.21,13.5,1.73,9.92,11.31,16.22,20,21.31,2.36,1.38,5.11,2.81,7.7,1.94,4-1.35,4.44-6.76,4.14-11l-1.19-16.52c-.39-5.27-.79-10.64-2.71-15.56s-5.65-9.42-10.7-11C137.74,564.41,136.17,577,134.28,585.49Z"/><path class="cls-7" d="M172.47,609.81c-1.14,3.71-2.46,7.79-.89,11.34,1.93,4.34,7.68,5.9,12.21,4.49s8-5,10.93-8.79c9.67-12.46,15.35-29.69,9.05-44.16-1.85-4.25-4.86-8.23-9.12-10.07C171.6,552.64,176,598.49,172.47,609.81Z"/><path class="cls-7" d="M188.41,638.21a93.46,93.46,0,0,1,16.11-17c2.43-2,5.61-4,8.52-2.78,2.38,1,3.5,3.66,4.24,6.13,2.05,6.84,2.95,14.34.46,21s-9.05,12.22-16.17,11.69c-7.76-.59-13.33-7.6-17.09-14.41l4.38-7.59"/><path class="cls-6" d="M123.19,610.59a11.8,11.8,0,0,1-1.69-3.9,16.5,16.5,0,0,1,0-7.78,11.79,11.79,0,0,1,1.7-3.89,11.79,11.79,0,0,1,1.7,3.89,16.5,16.5,0,0,1,0,7.78A11.8,11.8,0,0,1,123.19,610.59Z"/><path class="cls-6" d="M141.52,561.21a12.74,12.74,0,0,1-1.69-4.1,18.31,18.31,0,0,1,0-8.2,12.87,12.87,0,0,1,1.7-4.1,12.87,12.87,0,0,1,1.7,4.1,18.31,18.31,0,0,1,0,8.2A12.74,12.74,0,0,1,141.52,561.21Z"/><path class="cls-6" d="M184.48,553a10.73,10.73,0,0,1-1.69-3.66,14.49,14.49,0,0,1-.47-3.67,14.88,14.88,0,0,1,.46-3.67,10.76,10.76,0,0,1,1.7-3.66,10.54,10.54,0,0,1,1.69,3.66,14,14,0,0,1,.46,3.67,14.94,14.94,0,0,1-.46,3.67A10.92,10.92,0,0,1,184.48,553Z"/><path class="cls-6" d="M220.27,599.32a13.3,13.3,0,0,1,1.17,4.39,19.41,19.41,0,0,1-1,8.37,13.36,13.36,0,0,1-2.2,4,13.3,13.3,0,0,1-1.17-4.39,18.75,18.75,0,0,1,.06-4.24,19.35,19.35,0,0,1,1-4.13A13.78,13.78,0,0,1,220.27,599.32Z"/><path class="cls-9" d="M802.56,558.87s-35.86,48.55-5,88.82c0,0,34.76,13.24,29.24-9.93s-13.24-67.3-9.93-78.89S804.77,548.39,802.56,558.87Z"/><path class="cls-9" d="M858.64,558.87s35.87,48.55,5,88.82c0,0-34.76,13.24-29.24-9.93s13.24-67.3,9.93-78.89S856.44,548.39,858.64,558.87Z"/><path class="cls-9" d="M777.18,655.42s-.55,28.13,21,32c0,0,19.48-3.31,8.08-12.69S777.18,655.42,777.18,655.42Z"/><path class="cls-9" d="M885,655.42s.55,28.13-21,32c0,0-19.49-3.31-8.09-12.69S885,655.42,885,655.42Z"/></pattern><pattern id="New_Pattern_2-3" data-name="New Pattern 2" width="1000" height="750" patternTransform="translate(-277.99 878.45)" patternUnits="userSpaceOnUse" viewBox="0 0 1000 750"><rect class="cls-2" width="1000" height="750"/><path class="cls-3" d="M413.43,118.47s48,38,55,52,30,28,43,5,46-44,76-48,17-20,0-13-50,7-83,47c0,0-2-39,9-89s-15-20-14,0-10,89-14,93S415.43,89.47,413.43,118.47Z"/><path class="cls-4" d="M446.62,119.93s22.94,10,44.69-22.63l-5.47,67.29Z"/><path class="cls-4" d="M515.76,106.36s1.34,15.82,24.53,18.1l-34.38,31.07Z"/><path class="cls-5" d="M122.76,370.38s5.25,59.18,36.81,59.18,34.19-7.89,51.29-29.59,21-27,25-51.94c0,0-18.41,21-26.3,26.3s-10.52-2.63-3.94-17.1,25-31.55,21-57.85-11.84,11.83-14.47,18.41S192.45,348,192.45,348s-10.52,14.46-6.58-13.15,11.84-39.45,6.58-52.6-13.15-7.89-13.15-7.89,5.26,5.26,0,22.36-9.21,47.34-9.21,47.34-7.89,10.51-13.15-13.15-11.83-57.59-11.83-57.59-11.84,10.25-7.89,30,11.83,41,6.57,48.14-9.2.51-13.15-11.32-15.77-18.41-17.09-32.87C113.55,307.27,100.8,316.47,122.76,370.38Z"/><path class="cls-6" d="M126.23,165.76s7-38,35-42,26,2,46,21,14,38-7,34-27-16.92-51,.54C149.23,179.3,129.23,179.76,126.23,165.76Z"/><ellipse class="cls-6" cx="117.91" cy="114.51" rx="20.91" ry="17.81" transform="translate(-42.01 152.49) rotate(-57.52)"/><ellipse class="cls-6" cx="152.48" cy="86.63" rx="20.91" ry="17.81" transform="translate(-2.48 168.74) rotate(-57.52)"/><ellipse class="cls-6" cx="191.17" cy="86.63" rx="17.81" ry="20.91" transform="translate(-18.64 81.22) rotate(-22.9)"/><ellipse class="cls-6" cx="222.98" cy="118.45" rx="17.81" ry="20.91" transform="translate(-24.51 168.46) rotate(-39.4)"/><path class="cls-6" d="M851.83,68.45,843,88.94l-16.24,37.5-16.24-37.5-8.87-20.49c-13.73,10.73-22.89,30-22.89,52,0,33.69,21.49,61,48,61s48-27.31,48-61C874.72,98.45,865.56,79.18,851.83,68.45Z"/><path class="cls-6" d="M467.73,618.15s19.42,24.61,27.19,44,23.31,20.72,24.6,36.25,58.27,3.89,47.91-23.3c0,0,1.3-13-9.06-32.37s-7.77-45.33-7.77-45.33-10.36-11.65-25.9,0c0,0-18.12-37.55-37.55-15.53S469,602.61,467.73,618.15Z"/><ellipse class="cls-6" cx="465.66" cy="579.31" rx="14.24" ry="6.47" transform="translate(-269.98 685.49) rotate(-59.42)"/><ellipse class="cls-6" cx="472.97" cy="550.86" rx="14.24" ry="6.47" transform="matrix(0.4, -0.92, 0.92, 0.4, -220.01, 767.51)"/><ellipse class="cls-6" cx="491.09" cy="541.8" rx="14.24" ry="6.47" transform="translate(-112.44 954.67) rotate(-82.19)"/><ellipse class="cls-6" cx="513.73" cy="547.39" rx="14.24" ry="6.47" transform="translate(-52.92 1039.79) rotate(-87.81)"/><ellipse class="cls-6" cx="533.72" cy="572.73" rx="17.49" ry="7.95" transform="translate(-59.02 1084.14) rotate(-87.81)"/><path class="cls-6" d="M443.13,554.27a10.08,10.08,0,0,1,2.69,1.48,14.41,14.41,0,0,1,2.15,2,15,15,0,0,1,1.74,2.35,9.88,9.88,0,0,1,1.19,2.83,9.71,9.71,0,0,1-2.7-1.47,15.59,15.59,0,0,1-2.15-2,15,15,0,0,1-1.74-2.34A10.22,10.22,0,0,1,443.13,554.27Z"/><path class="cls-6" d="M454.78,524.06a9.21,9.21,0,0,1,2.28,1.86,14,14,0,0,1,2.81,4.74,9.16,9.16,0,0,1,.52,2.89,9,9,0,0,1-2.28-1.85,13.94,13.94,0,0,1-2.8-4.75A9.21,9.21,0,0,1,454.78,524.06Z"/><path class="cls-6" d="M479.38,515.86a7.44,7.44,0,0,1,2,1.7,10.91,10.91,0,0,1,1.33,2,10.42,10.42,0,0,1,.83,2.29,7.41,7.41,0,0,1,.17,2.61,7.44,7.44,0,0,1-2-1.7,10.66,10.66,0,0,1-1.33-2,11.08,11.08,0,0,1-.83-2.28A7.42,7.42,0,0,1,479.38,515.86Z"/><path class="cls-6" d="M505.71,522.33a5.11,5.11,0,0,1,1.76,1.14,6.22,6.22,0,0,1,1.73,3.24,5.15,5.15,0,0,1,0,2.1,5.16,5.16,0,0,1-1.77-1.14,6.3,6.3,0,0,1-1.72-3.24A5.15,5.15,0,0,1,505.71,522.33Z"/><path class="cls-6" d="M538.08,541.8a6.76,6.76,0,0,1,.45,2.5,9.52,9.52,0,0,1-.27,2.33,9.37,9.37,0,0,1-.8,2.2,7.14,7.14,0,0,1-1.53,2,6.76,6.76,0,0,1-.45-2.5,9.06,9.06,0,0,1,.27-2.33,9.57,9.57,0,0,1,.81-2.2A6.92,6.92,0,0,1,538.08,541.8Z"/><path class="cls-6" d="M443.93,394s27,48,64,30,43-29,44-55V355s-31,6-44-21c0,0-16,7-25,0,0,0-6,16-17,17C465.93,351,471.93,381,443.93,394Z"/><path class="cls-6" d="M433.27,371.93c1.65,5.13,4.46,10,8.72,13.32a6.83,6.83,0,0,0,3.3,1.59c1.82.2,3.53-.81,5-1.9a26.43,26.43,0,0,0,8.79-10.68,17.84,17.84,0,0,0,.32-13.63,23.15,23.15,0,0,0-2.41-4.18,25.55,25.55,0,0,0-7.52-7.52,13.29,13.29,0,0,0-10.27-1.73C427.4,350.54,430.44,363.07,433.27,371.93Z"/><path class="cls-6" d="M453.21,310.81c3.44-2.18,7.85-3.86,11.48-2s4.87,6.32,5.74,10.3l2.25,10.28a20.59,20.59,0,0,1,.69,5.57c-.32,5.18-4.72,9.49-9.72,10.91s-10.4.4-15.24-1.49c-3.67-1.43-7.28-3.48-9.46-6.77C432.34,327.6,445.66,315.59,453.21,310.81Z"/><path class="cls-6" d="M479.64,317.12a42.07,42.07,0,0,0,6.29,9.27c2.62,2.68,6.15,4.68,9.89,4.65,5.21-.05,9.57-3.87,12.9-7.87s6.22-8.58,7-13.73-1-10.91-5.28-13.8a15.84,15.84,0,0,0-4.87-2A29.44,29.44,0,0,0,483.41,297c-2.64,1.58-7.64,4.79-8.58,7.93C473.61,309,477.71,313.64,479.64,317.12Z"/><path class="cls-6" d="M518,326.58l1.82,5.91a29.62,29.62,0,0,0,2.59,6.54,21,21,0,0,0,5,5.53c3,2.42,6.56,4.4,10.42,4.66s8-1.55,9.7-5c1.34-2.8.92-6.09.47-9.16-.54-3.67-1.11-7.43-2.91-10.68a25.58,25.58,0,0,0-3.67-4.82,28.59,28.59,0,0,0-8-6.47,12.83,12.83,0,0,0-10-.92C517.45,314.38,516.36,321.16,518,326.58Z"/><ellipse class="cls-6" cx="781.73" cy="355.01" rx="21.42" ry="16.48" transform="translate(214.81 999.79) rotate(-73.1)"/><ellipse class="cls-6" cx="814.59" cy="322.64" rx="16.48" ry="21.42"/><ellipse class="cls-6" cx="851.81" cy="325.17" rx="16.48" ry="21.42"/><ellipse class="cls-6" cx="884.19" cy="362.27" rx="21.42" ry="16.48" transform="translate(373 1169.57) rotate(-79.94)"/><path class="cls-6" d="M781.73,399S784,384.74,804.91,376a35.47,35.47,0,0,0,15.38-13.68c6-9.93,26.8-11.58,31.52,3.8,0,0,6.81,11.53,16.48,18.67s35.48,21.42,3.07,36.8c0,0-10.43,3.84-30.75-5,0,0-8.65-4.91-26,5.78S775.29,410.66,781.73,399Z"/><path class="cls-6" d="M780.58,316.09a14.56,14.56,0,0,1,1.72,4.49,22,22,0,0,1,.48,4.48,21.24,21.24,0,0,1-.47,4.48,14.35,14.35,0,0,1-1.73,4.49,14.35,14.35,0,0,1-1.73-4.49,21.24,21.24,0,0,1-.47-4.48,22,22,0,0,1,.48-4.48A14.56,14.56,0,0,1,780.58,316.09Z"/><path class="cls-6" d="M811.5,277.1a15.52,15.52,0,0,1,1.72,4.67,22.37,22.37,0,0,1,.48,4.67,23,23,0,0,1-.47,4.66,15.19,15.19,0,0,1-1.73,4.67,15.46,15.46,0,0,1-1.73-4.67,22.32,22.32,0,0,1-.46-4.66,23.05,23.05,0,0,1,.47-4.67A15.52,15.52,0,0,1,811.5,277.1Z"/><path class="cls-6" d="M851.81,279.3a12.62,12.62,0,0,1,1.72,4.12,17.47,17.47,0,0,1,.48,4.11,18,18,0,0,1-.47,4.12,12.44,12.44,0,0,1-1.73,4.12,12.41,12.41,0,0,1-1.72-4.12,17,17,0,0,1-.47-4.12,18,18,0,0,1,.47-4.11A12.62,12.62,0,0,1,851.81,279.3Z"/><path class="cls-6" d="M893.33,322.64a11.31,11.31,0,0,1,1.44,4,16.08,16.08,0,0,1-.54,7.71,11.34,11.34,0,0,1-2,3.73,11.54,11.54,0,0,1-1.45-4,16.06,16.06,0,0,1,.56-7.7A11.54,11.54,0,0,1,893.33,322.64Z"/><path class="cls-7" d="M142.6,661.26s-15.1,18.33,0,23.72,71.16,4.32,49.6-17.25S173.87,633.23,142.6,661.26Z"/><path class="cls-8" d="M135.89,578.24"/><path class="cls-7" d="M112.63,628.81a40,40,0,0,0,4,17c1.91,3.95,4.69,7.75,8.75,9.43,7.15,3,15.13-1.65,20.91-6.81,1.7-1.52,3.42-3.25,3.88-5.48.63-3.07-1.3-6-3.13-8.58-4.33-6-9.08-12.37-16.06-14.89s-16.59,1-17.43,8.4"/><path class="cls-7" d="M134.28,585.49c-1,4.44-2,9-1.21,13.5,1.73,9.92,11.31,16.22,20,21.31,2.36,1.38,5.11,2.81,7.7,1.94,4-1.35,4.44-6.76,4.14-11l-1.19-16.52c-.39-5.27-.79-10.64-2.71-15.56s-5.65-9.42-10.7-11C137.74,564.41,136.17,577,134.28,585.49Z"/><path class="cls-7" d="M172.47,609.81c-1.14,3.71-2.46,7.79-.89,11.34,1.93,4.34,7.68,5.9,12.21,4.49s8-5,10.93-8.79c9.67-12.46,15.35-29.69,9.05-44.16-1.85-4.25-4.86-8.23-9.12-10.07C171.6,552.64,176,598.49,172.47,609.81Z"/><path class="cls-7" d="M188.41,638.21a93.46,93.46,0,0,1,16.11-17c2.43-2,5.61-4,8.52-2.78,2.38,1,3.5,3.66,4.24,6.13,2.05,6.84,2.95,14.34.46,21s-9.05,12.22-16.17,11.69c-7.76-.59-13.33-7.6-17.09-14.41l4.38-7.59"/><path class="cls-6" d="M123.19,610.59a11.8,11.8,0,0,1-1.69-3.9,16.5,16.5,0,0,1,0-7.78,11.79,11.79,0,0,1,1.7-3.89,11.79,11.79,0,0,1,1.7,3.89,16.5,16.5,0,0,1,0,7.78A11.8,11.8,0,0,1,123.19,610.59Z"/><path class="cls-6" d="M141.52,561.21a12.74,12.74,0,0,1-1.69-4.1,18.31,18.31,0,0,1,0-8.2,12.87,12.87,0,0,1,1.7-4.1,12.87,12.87,0,0,1,1.7,4.1,18.31,18.31,0,0,1,0,8.2A12.74,12.74,0,0,1,141.52,561.21Z"/><path class="cls-6" d="M184.48,553a10.73,10.73,0,0,1-1.69-3.66,14.49,14.49,0,0,1-.47-3.67,14.88,14.88,0,0,1,.46-3.67,10.76,10.76,0,0,1,1.7-3.66,10.54,10.54,0,0,1,1.69,3.66,14,14,0,0,1,.46,3.67,14.94,14.94,0,0,1-.46,3.67A10.92,10.92,0,0,1,184.48,553Z"/><path class="cls-6" d="M220.27,599.32a13.3,13.3,0,0,1,1.17,4.39,19.41,19.41,0,0,1-1,8.37,13.36,13.36,0,0,1-2.2,4,13.3,13.3,0,0,1-1.17-4.39,18.75,18.75,0,0,1,.06-4.24,19.35,19.35,0,0,1,1-4.13A13.78,13.78,0,0,1,220.27,599.32Z"/><path class="cls-9" d="M802.56,558.87s-35.86,48.55-5,88.82c0,0,34.76,13.24,29.24-9.93s-13.24-67.3-9.93-78.89S804.77,548.39,802.56,558.87Z"/><path class="cls-9" d="M858.64,558.87s35.87,48.55,5,88.82c0,0-34.76,13.24-29.24-9.93s13.24-67.3,9.93-78.89S856.44,548.39,858.64,558.87Z"/><path class="cls-9" d="M777.18,655.42s-.55,28.13,21,32c0,0,19.48-3.31,8.08-12.69S777.18,655.42,777.18,655.42Z"/><path class="cls-9" d="M885,655.42s.55,28.13-21,32c0,0-19.49-3.31-8.09-12.69S885,655.42,885,655.42Z"/></pattern><clipPath id="clip-path"><rect class="cls-1" x="-22.59" y="-23.7" width="2010.44" height="2010.44"/></clipPath></defs><title>InstaPet_pawsArtboard 3</title><rect class="cls-10" x="-22.59" y="-23.7" width="2010.44" height="2010.44"/><g class="cls-11"><rect class="cls-10" x="-1398.34" y="-1410.29" width="3689.69" height="3493.19"/></g></svg>