<svg id="Layer_1" data-name="Layer 1" xmlns="http://www.w3.org/2000/svg" xmlns:xlink="http://www.w3.org/1999/xlink" viewBox="0 0 2000 2000"><defs><style>.cls-1{fill:#80004f;}.cls-2{fill:#97bf9f;}.cls-12,.cls-19,.cls-20,.cls-25,.cls-29,.cls-3,.cls-34,.cls-5{fill:#fff;}.cls-11,.cls-13,.cls-14,.cls-15,.cls-16,.cls-17,.cls-18,.cls-19,.cls-20,.cls-21,.cls-22,.cls-23,.cls-24,.cls-25,.cls-26,.cls-27,.cls-29,.cls-3,.cls-30,.cls-31,.cls-32,.cls-33,.cls-35,.cls-4,.cls-5,.cls-6,.cls-7,.cls-8{stroke:#1d1d1b;stroke-miterlimit:10;}.cls-3{stroke-width:5.36px;}.cls-4{fill:#dedc00;stroke-width:2.27px;}.cls-5{stroke-width:6.2px;}.cls-11,.cls-22,.cls-23,.cls-30,.cls-31,.cls-35,.cls-6,.cls-7{fill:none;}.cls-18,.cls-6,.cls-8{stroke-width:0.62px;}.cls-7{stroke-width:2.13px;}.cls-13,.cls-14,.cls-15,.cls-16,.cls-17,.cls-21,.cls-26,.cls-27,.cls-32,.cls-33,.cls-8,.cls-9{fill:#1d1d1b;}.cls-10{fill:#063;opacity:0.61;}.cls-11{stroke-width:1.07px;}.cls-13{stroke-width:0.46px;}.cls-14{stroke-width:0.37px;}.cls-15{stroke-width:0.46px;}.cls-16{stroke-width:0.31px;}.cls-17{stroke-width:0.46px;}.cls-18{fill:url(#White_Black);}.cls-19{stroke-width:5.38px;}.cls-20,.cls-21,.cls-22,.cls-24{stroke-width:0.57px;}.cls-23{stroke-width:1.7px;}.cls-24{fill:url(#White_Black-2);}.cls-25{stroke-width:11.96px;}.cls-26{stroke-width:12.63px;}.cls-27{stroke-width:12.52px;}.cls-28{fill:#d68e8a;}.cls-29{stroke-width:7.37px;}.cls-30{stroke-width:1.04px;}.cls-31{stroke-width:1.03px;}.cls-32{stroke-width:0.91px;}.cls-33{stroke-linecap:round;stroke-width:1.23px;}.cls-34{font-size:143px;font-family:Krungthep, Krungthep;letter-spacing:0em;}.cls-35{stroke-width:6.21px;}</style><linearGradient id="White_Black" x1="-1996.19" y1="1000" x2="-1943.1" y2="1000" gradientTransform="matrix(-1, 0, 0, 1, -567.65, 0)" gradientUnits="userSpaceOnUse"><stop offset="0" stop-color="#fff"/><stop offset="1" stop-color="#1d1d1b"/></linearGradient><linearGradient id="White_Black-2" x1="-1985.28" y1="1305.43" x2="-1914.13" y2="1305.43" gradientTransform="matrix(-0.99, 0.15, 0.15, 0.99, -1513.3, 130.96)" xlink:href="#White_Black"/></defs><title>InstaPet_logoooArtboard 1</title><ellipse class="cls-1" cx="991.04" cy="1048.38" rx="682.95" ry="665.66"/><path class="cls-2" d="M1217,546.68a22.27,22.27,0,0,1,31.33-3.16,22.54,22.54,0,0,1,8.5,18.59,375.78,375.78,0,0,0,41.52,8.71l-6.5-15.75a22.6,22.6,0,0,1-15.93-4.94,22.05,22.05,0,1,1,31.33-3.16l10.94,26.37c34.2,3.41,75.63,2.43,105.69-14.72,12.59,13.11,18.38,16.91,18.74,17.14h0c-12.94,7.49-55.77,27.35-132.42,16.92l-26.5,21.53a22,22,0,0,1-2.44,23.57,22.47,22.47,0,1,1-4.86-32.09l21.21-18.86-44.74-13.12c-.25.36-.52.71-.8,1.06a22.48,22.48,0,0,1-35.08-28.1Z"/><path class="cls-2" d="M1698.92,349.52a30.42,30.42,0,0,1,36.57-23.76A31.82,31.82,0,0,1,1759.65,363a30.51,30.51,0,0,1-12.7,19.22l7,22.26a507.53,507.53,0,0,0,39.25-48.22,31.66,31.66,0,0,1-7.64-27.61,30.44,30.44,0,0,1,36.58-23.77,31.82,31.82,0,0,1,24.15,37.3A30.43,30.43,0,0,1,1809.77,366c-.62-.14-1.21-.28-1.82-.46l-36.31,53.16,36.8,2a30.4,30.4,0,0,1,36-21.66,31.83,31.83,0,0,1,24.15,37.3,30.43,30.43,0,0,1-36.56,23.76,31.75,31.75,0,0,1-23.91-23.65l-44.81-.41c-51.35,54.76-98.25,78.74-128.75,89.23l-21.47-28.11c45.63-8.12,88.92-40.83,121.71-72.83l-11.78-37.46A31.84,31.84,0,0,1,1698.92,349.52Z"/><path class="cls-2" d="M252.59,659.87c-10.64,23-13.63,38.71-13.72,39.19h0c-75.54-32.64-106.86-4.63-114-2-5,1.83-7.57,18.68-8.69,29.17a25.68,25.68,0,0,1,9.51,20.3A25.07,25.07,0,0,1,99.6,771.12a26.08,26.08,0,0,1-25.28-26.26,25.07,25.07,0,0,1,26.08-24.6,14.91,14.91,0,0,1,1.5.1c.93-9.24,2.36-21.07,2.36-21.07L68.48,719a24,24,0,0,1,.25,4,25.05,25.05,0,0,1-26.07,24.61,26.08,26.08,0,0,1-25.27-26.26A25,25,0,0,1,43.46,696.7a26.06,26.06,0,0,1,17.59,7.58l39.06-21.13-24.62-8.56a25.27,25.27,0,0,1-19.39,8,26,26,0,0,1-25.26-26.25A25.05,25.05,0,0,1,56.9,631.72,26.07,26.07,0,0,1,82.17,658c0,.68,0,1.34-.13,2l31.48,10.53C169.42,645.59,225.54,653.49,252.59,659.87Z"/><path class="cls-2" d="M600.72,882.07A23,23,0,0,1,568.21,880a23.35,23.35,0,0,1-5.89-18.14l-20.17-12,8.48,39.49a23.39,23.39,0,0,1,15.4,7.72A22.81,22.81,0,1,1,533.52,895a22.57,22.57,0,0,1,2.85-2.17l-7.56-36.36s-7.17,8-12.87,14c.32.32.62.64.93,1a22.81,22.81,0,1,1-32.5-2.07,22.57,22.57,0,0,1,19.28-5.35c6.46-6.94,16.39-18.61,14.68-23.18-2.48-6.68-1.67-47-74.19-80.84l21.62-31.87c18.92,13.52,60.51,48.55,77.14,105l25.49,15.61c.4-.44.83-.85,1.28-1.26a23.25,23.25,0,0,1,31.05,34.6Z"/><path class="cls-2" d="M1823,923.74c-6.69,69.77-22,144-49.27,192.67-13.47,24-29.87,41.74-49.62,49.74a265.12,265.12,0,0,1-35.31,11.77c-31,7.81-64.13-3.66-84.17-29.16C1481.08,991.49,1476.39,877.16,1504,819c27.19-57.34,34.21-172-88.39-263.75L1369.77,519c-336.89-232.43-637.39-58.63-762.83,38.81A484.28,484.28,0,0,0,506.59,663.19l-.37.53L453.33,749C279,969,309,1550.16,788.15,1677.17c616.87,163.52,853.05-418.93,855.12-423C1421.7,1947.82,701,1888.7,392.78,1572.19,136.36,1308.86,101.11,911.06,282,604.22v0c.5-1.05,16.57-34.92,54.37-80.89a836.84,836.84,0,0,1,81.69-92.11c322.24-313.6,833.33-311.2,1141.58,5.33q8.14,8.37,16,16.93l0,0c.75.62,13,11,38.08,44.6A783.72,783.72,0,0,1,1717.2,670.4a216.39,216.39,0,0,0,36.13,56.13c7.8,8.88,14.93,17.66,21.38,26.16A244.17,244.17,0,0,1,1823,923.74Z"/><path class="cls-3" d="M1526.08,1181.51v0a35.11,35.11,0,0,1-12.29,18.45l0,0s-7.4,19.76-27.16,19.76h0c-.19.49-6.53,16-28.32,17.81a41,41,0,0,1-19.5-3.18,169.85,169.85,0,0,0-24.67-8.29c-13.28-3.3-28.86-5.18-42.33-1.41-30.86,8.65-49.39,14.82-65.43,50.62-8.19,18.27-4.21,96.3,1.66,168.34H979.39c1.22-3.72,2.48-7.5,3.82-11.34,5.78-16.66,12.68-34.49,20.83-53.57,0,0,9.27-12.4,24.32-32.19,5.11-6.72,10.89-14.29,17.21-22.51,6.7-8.75,14-18.22,21.74-28.21,18.07-23.28,38.5-49.31,59.24-75.09l3.2-4,7.28-9c9.5-11.71,19-23.26,28.27-34.37l7.43-8.84c24.65-29.2,47.41-54.64,64.43-70.75,0,0,35.81-40.74,77.78-59.26,0,0,18.79-30.73,53.65-57.42,16.49-12.62,36.57-24.34,60-31.47l-.19.4c-2.2,4.46-21.78,44.52-24.25,65.9a.28.28,0,0,0,0,.09,38.13,38.13,0,0,0-.24,4s55.56,14.82,75.31,55.56c0,0,16,29.64,16,51.86,0,19,22.62,48,29.14,56,1,1.21,1.6,1.92,1.72,2.06Z"/><path class="cls-4" d="M677.4,988.88C736,996.67,777.59,1044,777.59,1044s98.54-87.8,37.64-198.42c0,0,17.59,77.87-41,119.1C738.23,990.07,704.74,990.74,677.4,988.88Z"/><path class="cls-5" d="M935.22,1443.67H641.34c-5.32-21.6-11.73-68.67-14.53-108.85v0c-1.54-21.85-2-41.66-.64-54.23a.35.35,0,0,1,0-.06q.36-3.24.87-5.79c.2-.92.4-1.85.61-2.77h0c.59-2.62,1.26-5.17,2-7.67a.29.29,0,0,1,0-.09,91.75,91.75,0,0,1,13.84-28.83c36-48.77,111.89-28.21,183.74,43.26.64.63,1.26,1.26,1.9,1.91l0,0c.56.56,1.12,1.13,1.67,1.7l.41.42c.68.67,1.33,1.35,2,2l.54.55a466.21,466.21,0,0,1,38.42,45.8q10.18,13.82,19.32,28.1c.14.21.29.43.41.64,1.19,1.87,2.37,3.74,3.52,5.61a507.85,507.85,0,0,1,35.47,67.94c.67,1.54,1.31,3.06,2,4.59C933.68,1439.84,934.45,1441.76,935.22,1443.67Z"/><path class="cls-6" d="M1375.45,1054.33c7.41-58,53.09-108.66,53.09-108.66"/><path class="cls-7" d="M1312.48,1054.33s-6.18,37,14.81,46.92"/><path class="cls-7" d="M1343.35,1127.17s-11.58,8.65-31.72,0"/><path class="cls-7" d="M1292.72,1101.25s-4.94-27.17,8.65-46.92"/><path class="cls-8" d="M1526.08,1181.5s-3.29-9-27.57-2.47c0,0,7,18.52,15.22,21A47.58,47.58,0,0,0,1526.08,1181.5Z"/><path class="cls-9" d="M1477.93,1192.61l-15.08-12.41c-5-4.12-10-8.29-15.11-12.36s-10.08-8.23-15.14-12.32l-15.17-12.3c2.67,1.87,5.31,3.77,8,5.69s5.22,3.89,7.81,5.86c5.18,4,10.26,8,15.33,12.11s10,8.32,14.94,12.6l7.31,6.48C1473.17,1188.16,1475.59,1190.35,1477.93,1192.61Z"/><path class="cls-9" d="M1453.23,1188.33l-11.94-4.45c-4-1.49-8-3-11.94-4.41-8-2.91-16-5.82-24-8.58s-16.06-5.51-24.12-8.17c-4-1.31-8.07-2.63-12.13-3.85s-8.13-2.45-12.19-3.71c4.13,1,8.26,2,12.35,3.13s8.18,2.32,12.26,3.52c8.13,2.48,16.2,5.15,24.23,7.92s16,5.76,23.91,8.85c4,1.56,7.9,3.13,11.83,4.74S1449.36,1186.59,1453.23,1188.33Z"/><path class="cls-9" d="M1470.52,1200q-8.51-.91-17-1.33c-2.85-.17-5.7-.26-8.55-.39l-8.54-.17c-11.4-.11-22.8.24-34.15,1.16l-4.26.33c-1.42.1-2.84.21-4.25.39l-8.49.94c-2.83.33-5.64.82-8.45,1.22l-4.23.64c-1.41.21-2.8.51-4.2.76l-8.4,1.57-8.32,1.95-4.17,1-4.11,1.17-8.24,2.32,8.15-2.63,4.08-1.31,4.14-1.09,8.3-2.13,8.39-1.75c1.4-.28,2.8-.6,4.21-.84l4.23-.67c2.82-.42,5.64-.94,8.48-1.28l8.51-1c1.42-.18,2.84-.31,4.26-.42l4.28-.35c11.4-.82,22.83-1.19,34.26-.87A282.33,282.33,0,0,1,1470.52,1200Z"/><path class="cls-7" d="M1486.57,1219.78s-12.35,5.35-28,0-20.57-10.66-34.16-15.21"/><path class="cls-10" d="M1454.14,1095.61c-7.46-2.94-19.42-2.23-25.6,1.93-4.64,12,2.49,29,17.19,30.72,9.56,1.09,13.68-1.09,21.71-2.35C1465.58,1115.44,1466.16,1100.35,1454.14,1095.61Z"/><path class="cls-11" d="M1455.67,1092c-9.12-3.59-23.76-2.72-31.32,2.36-5.68,14.72,3,35.53,21,37.59,11.69,1.34,16.73-1.33,26.55-2.87C1469.67,1116.31,1470.38,1097.84,1455.67,1092Z"/><path class="cls-9" d="M1451.91,1094.74s16.29,22.44-8.09,32.73Z"/><path class="cls-12" d="M1453.23,1099.7a13.41,13.41,0,0,1,1.63,3.94,18.9,18.9,0,0,1,.57,4.24,16.1,16.1,0,0,1-.47,4.26,11.41,11.41,0,0,1-1.73,3.92c.09-1.44.26-2.78.31-4.13s.1-2.68,0-4C1453.56,1105.22,1453.33,1102.55,1453.23,1099.7Z"/><circle class="cls-13" cx="1489.92" cy="1198.84" r="2"/><circle class="cls-14" cx="1455.5" cy="1189.22" r="1.59"/><circle class="cls-14" cx="1470.52" cy="1200.02" r="1.59"/><circle class="cls-15" cx="1477.93" cy="1205.24" r="2.01"/><circle class="cls-16" cx="1479.26" cy="1193.95" r="1.34"/><circle class="cls-17" cx="1464.09" cy="1206.58" r="2.01"/><circle class="cls-17" cx="1450.53" cy="1201.62" r="2.01"/><path class="cls-18" d="M1428.54,945.67s-44.45,49.39-53.09,108.66c0,0,6.79-25.93,28.4-38.28C1403.85,1016.05,1402,1002.47,1428.54,945.67Z"/><path class="cls-19" d="M1150.94,1442.6l1.38,1.07H960.93c-7.34-4-12.94-5.81-17.6-6.35a30.54,30.54,0,0,0-10.45.61c-.68.14-1.36.31-2,.47-6.54,1.57-12.69,3.55-23.37-.59-8.81-3.42-19-11.39-28.52-20.38a.38.38,0,0,1-.12-.1c-18.14-17.08-34-37.75-34-37.75l-4.08,10.93c-5.42-6.28-9.2-9.73-11.82-11.32a7,7,0,0,0-2.59-1.08,2.1,2.1,0,0,0-1.81.44c-1.62,1.42-1.1,5.72-.56,8.49.28,1.44.57,2.48.57,2.48.25,7.16-.45,11.58-1.66,14.18a5.3,5.3,0,0,1-2.71,2.94c-4.18,1.7-9.81-4.67-9.81-4.67-27.48-30.27-23.49-11.38-23.49-11.38L773,1359.45c.1.72,2.48,17,.5,26.27-2,9.48-21.08-10.58-21.08-10.58l-.23,13.79s-12.61-15.31-21-25.5-10.9-41.93-21.93-39.13-19.51,30.46-19.51,30.46c-10.83-11-18.85-33.87-18.85-33.87s-7.62,10.33-14.86,8-9.09-14.68-9.09-14.68c-7.9,16.08-4.3,47.65-4.3,47.65-9-6.63-13.52-17.64-15.81-27v0a83.56,83.56,0,0,1-2.3-16.69h0c0-.35,0-.54,0-.54l-.7,1.08L598.33,1357c10.43-18.78,18.27-40.16,24.11-61.71,1.35-4.93,2.58-9.85,3.73-14.77a.35.35,0,0,1,0-.06c1.28-5.45,2.42-10.88,3.47-16.24a.29.29,0,0,1,0-.09A582.67,582.67,0,0,0,640,1161.57h0c20.22-18,18-32.52.19-59.66a51.62,51.62,0,0,0-3.94-5.27c-17-20-35.93-8.21-35.93-8.21C558,1007.92,626,985.59,665.89,985.37c11.51-.06,35.75,1.45,58.78,12.57l0,0c24,10.31,42.79,27.21,56.23,42.82a197.58,197.58,0,0,1,24.73,36c.41.81.84,1.59,1.26,2.39,4.94,9.36,15.34,40.9,31.37,73,.33.65.65,1.3,1,1.94,1,2.06,2.11,4.12,3.19,6.17.77,1.46,1.56,2.91,2.34,4.36,9.39,17.09,20.4,33.54,33.06,46l1.79,1.76c2.08,2,4.19,4.1,6.31,6.15,38.68,37.39,82.54,75.25,85.58,81.21.85,1.67,14.56,13,34.34,28.93,6.85,5.5,14.42,11.54,22.46,17.91,7.15,5.67,14.67,11.61,22.33,17.65C1088.27,1393.84,1129.56,1426,1150.94,1442.6Z"/><path class="cls-20" d="M640.2,1101.91s9.32,23.82-31.26,43.69c0,0-27.81,13.36-21.07,35.28,0,0-29.34-42.6-.93-82.43C586.94,1098.45,616.52,1066.48,640.2,1101.91Z"/><path class="cls-21" d="M599.14,1152.07s6-2.07,15.37,4.35a24.28,24.28,0,0,0,12,4.21l13.46.93s34.64-21.26.19-59.65C640.2,1101.91,650.56,1131,599.14,1152.07Z"/><circle class="cls-9" cx="675.25" cy="1075.73" r="11.62"/><path class="cls-22" d="M724.7,998h0"/><path class="cls-23" d="M650.47,1086.8s18.37,11.35,32.06,5.24S700,1064.67,700,1064.67s-18.38-11.36-32.07-5.24S650.47,1086.8,650.47,1086.8Z"/><circle class="cls-12" cx="670.58" cy="1072.28" r="4.11"/><path class="cls-24" d="M640.2,1101.91s9.32,23.82-31.26,43.69c0,0-27.81,13.36-21.07,35.28,0,0-29.34-42.6-.93-82.43C586.94,1098.45,616.52,1066.48,640.2,1101.91Z"/><path class="cls-25" d="M1158.19,1439.16H817.52l2.64-36.77,6-83,3-42.28,5.73-79.64,3.42-47.86,14.44-201.21,10.9-152v0l1.5-20.83.09-1.23h232.89l.09,1.12,4.18,46.07v0L1133.52,1166l1.31,14.6v0l2.2,24.29Z"/><path class="cls-26" d="M1152.32,1439.16h-113a751.86,751.86,0,0,1,12.61-79.44c5-23.56,10.7-46.48,16.62-68.37q3.45-12.76,6.93-25,6.48-22.9,12.94-45.82,16.26-57.59,32.54-115.17l6.35,67.67.89,9.41v0l2.79,29.84,21.2,225.82Z"/><path class="cls-27" d="M902.7,1325.46a183.18,183.18,0,0,1-4,34.33c-1.25,6-2.75,11.79-4.41,17.38-2,6.79-4.26,13.3-6.59,19.56-1.81,4.87-3.67,9.58-5.5,14.18-.06.14-.11.27-.17.4Q877,1424,871.9,1436.68H823.49l2.62-39.26,1.1-16.37.56-8.34,3.56-53.09,2.78-41.54,8.43-125.92L856,951.22c1.1,7.11,2.38,14.22,3.75,21.34q.94,4.83,1.95,9.68c6,29.22,13.46,58.43,18,87.66,2.57,16.66,5.19,34.21,4.25,51.91-.69,12.82-3.18,24.61-4.15,37.3-1.33,17.57.3,34.13,3.18,50.32C889.72,1247.48,903.56,1283.45,902.7,1325.46Z"/><ellipse class="cls-9" cx="982.52" cy="859.44" rx="61.98" ry="75.38"/><path class="cls-28" d="M1020.07,873.59a39.19,39.19,0,0,1-23.89,28.55h0a39.15,39.15,0,0,1-28.93,0h0a39.14,39.14,0,0,1-23.9-28.62,39.11,39.11,0,0,0,17.74-32.77,38,38,0,0,0-.28-4.68l5.39,7.21c6.89,9.2,24.12,9.2,31,0l5.3-7.1a38.28,38.28,0,0,0-.27,4.57A39.07,39.07,0,0,0,1020.07,873.59Z"/><path class="cls-29" d="M1087,652.85A418.27,418.27,0,0,1,1065.21,585a44.57,44.57,0,0,1,3.53-30,185.05,185.05,0,0,0-174.22.07A44.76,44.76,0,0,1,900,588.57a417.6,417.6,0,0,1-23.59,72.17,367.4,367.4,0,0,1-33.18,60.5c9.69,21.94,24.47,57.6,33.18,89.15a214.62,214.62,0,0,1,6.37,30.36,39.14,39.14,0,0,0,39.15,39.14h1.47c8.09-.1,38.33-2.44,51.67-30.65a23.14,23.14,0,0,0,12.65.16c15.52,32.59,53.65,30.51,53.65,30.51a39.14,39.14,0,0,0,39.15-39.14,213.55,213.55,0,0,1,6.45-30.59c9.24-33.4,25.28-71.37,34.83-92.75A368.13,368.13,0,0,1,1087,652.85Zm-28.48,38.54c-9.46,0-17.12-10.81-17.12-24.14s7.66-24.13,17.12-24.13,17.12,10.8,17.12,24.13S1067.94,691.39,1058.49,691.39Z"/><path class="cls-30" d="M1041.37,667.25c0-13.33,7.66-24.13,17.12-24.13s17.12,10.8,17.12,24.13-7.67,24.14-17.12,24.14S1041.37,680.58,1041.37,667.25Z"/><path class="cls-31" d="M1058.49,691.39c-9.46,0-17.12-10.81-17.12-24.14s7.66-24.13,17.12-24.13,17.12,10.8,17.12,24.13S1067.94,691.39,1058.49,691.39Z"/><path class="cls-31" d="M843.23,721.24c-5.63-12.73-9.53-20.85-9.53-20.85"/><path class="cls-29" d="M1075.61,667.25c0,13.33-7.67,24.14-17.12,24.14s-17.12-10.81-17.12-24.14,7.66-24.13,17.12-24.13S1075.61,653.92,1075.61,667.25Z"/><path class="cls-29" d="M928.15,667.25c0,13.33-7.66,24.14-17.12,24.14s-17.12-10.81-17.12-24.14,7.67-24.13,17.12-24.13S928.15,653.92,928.15,667.25Z"/><path class="cls-29" d="M1270.86,826.61c-4.72,7.54-57.74-8.67-110.36-62a334.86,334.86,0,0,1-38.7-47.23A368.13,368.13,0,0,1,1087,652.85,418.27,418.27,0,0,1,1065.21,585a44.57,44.57,0,0,1,3.53-30,44.8,44.8,0,0,1,33.77-24.55c26.35-3.84,60.54,4.85,91,55.79C1253.66,686.88,1279.45,812.85,1270.86,826.61Z"/><path class="cls-29" d="M900,588.57a417.6,417.6,0,0,1-23.59,72.17,367.4,367.4,0,0,1-33.18,60.5,334.21,334.21,0,0,1-39.18,47.64c-52.41,52.8-105,68.84-109.7,61.33-8.6-13.77,17.19-139.73,77.36-240.42,30.43-50.94,64.62-59.63,91-55.8a44.28,44.28,0,0,1,13.72,4.32A45.06,45.06,0,0,1,900,588.57Z"/><ellipse class="cls-9" cx="911.03" cy="667.25" rx="8.75" ry="17.49"/><ellipse class="cls-12" cx="912.29" cy="660.74" rx="4.37" ry="8.75"/><ellipse class="cls-9" cx="1058.49" cy="667.25" rx="8.75" ry="17.49"/><path class="cls-32" d="M1021.78,807.09a11.32,11.32,0,0,1-2.42,6.77l-11.09,14.82-4,5.33-1.79,2.4-5.3,7.09c-6.89,9.21-24.12,9.21-31,0l-5.39-7.2L959.1,834l-4-5.34L944,813.86a11.29,11.29,0,0,1-2.4-6.73c-.12-7.27,7.38-14,17.9-14h44.34C1014.38,793.14,1021.87,799.84,1021.78,807.09Z"/><path class="cls-12" d="M977.94,803.65a22.83,22.83,0,0,1,8.68-.41,29.64,29.64,0,0,1,8.42,2.47,29.29,29.29,0,0,1,7.32,4.82,22.55,22.55,0,0,1,5.3,6.9c-2.41-1.63-4.69-3.18-7-4.58a78.92,78.92,0,0,0-7.14-3.8,74.48,74.48,0,0,0-7.52-3C983.39,805.17,980.74,804.44,977.94,803.65Z"/><ellipse class="cls-12" cx="1059.67" cy="660.74" rx="4.37" ry="8.75"/><path class="cls-9" d="M941.62,807.13c-1.88-7.32-3.39-14.69-4.79-22.08-.72-3.69-1.32-7.4-2-11.1l-1.79-11.13-1.58-11.17c-.46-3.73-1-7.45-1.38-11.19-.86-7.47-1.59-15-2-22.51,1.88,7.32,3.4,14.69,4.79,22.08.73,3.69,1.32,7.4,2,11.1l1.78,11.14,1.59,11.16c.46,3.73,1,7.45,1.38,11.19C940.52,792.09,941.25,799.59,941.62,807.13Z"/><path class="cls-9" d="M1020.07,807.13c.37-7.54,1.09-15,1.95-22.51.39-3.74.92-7.46,1.38-11.19l1.58-11.16,1.78-11.14c.66-3.7,1.26-7.41,2-11.1,1.39-7.39,2.9-14.76,4.79-22.08-.37,7.55-1.09,15-2,22.51-.39,3.74-.92,7.46-1.38,11.19l-1.59,11.17L1026.84,774c-.66,3.7-1.26,7.41-2,11.1C1023.46,792.44,1021.94,799.81,1020.07,807.13Z"/><path class="cls-9" d="M893.16,624.3a16,16,0,0,1,6.52-6.32,21.65,21.65,0,0,1,17.76-1.24,15.87,15.87,0,0,1,7.33,5.37c-3.14.24-5.79.22-8.38.33s-5,.19-7.46.36-4.87.38-7.43.66S896.31,624.11,893.16,624.3Z"/><path class="cls-9" d="M1075.61,624.3c-3.15-.19-5.77-.59-8.35-.84s-5-.5-7.43-.66-4.89-.28-7.46-.36-5.24-.09-8.38-.33a15.8,15.8,0,0,1,7.33-5.37,21.68,21.68,0,0,1,17.77,1.24A16,16,0,0,1,1075.61,624.3Z"/><path class="cls-33" d="M735.84,663.6c1.75,7.55,8.86,13.07,16.46,14.58s15.51-.4,22.58-3.57c6.69-3,13-7.33,16.84-13.61,3.23-5.35,4.36-11.7,7-17.36,6.08-13,19.35-21,27.79-32.55,7.17-9.83,10.66-22.64,7.88-34.48-1.09-4.68-3.1-9.09-4.44-13.7a49.37,49.37,0,0,1-.83-24c-16,.34-28.44,13.56-39.07,25.55-6.09,6.87-12.15,13.8-17.27,21.41-7.52,11.18-12.9,23.63-18.23,36C748.38,636.26,742,649.25,735.84,663.6Z"/><path class="cls-33" d="M1191.22,746.73c2.57,2.62,4.85,5.69,8.13,7.34,3.84,1.93,8.36,1.59,12.65,1.91,12.25.93,23.26,7.52,33.74,13.94,3.12,1.91,6.34,3.92,8.33,7,2.47,3.81,2.64,8.59,3.53,13a38.54,38.54,0,0,0,6.88,15.46c2.18,2.93,4.81,5.59,6.42,8.87s2,7.53-.28,10.4c-3.89,5-11.73,2.52-17.35-.32l-19.53-9.86c-4.08-2.06-8.16-4.12-12.18-6.29A247.38,247.38,0,0,1,1146,745c-6.07-7.63,15.67-9.46,20.32-9.19A38.12,38.12,0,0,1,1191.22,746.73Z"/><path class="cls-33" d="M1141.72,575.89c-2.09,4.8-3.53,10.18-2.27,15.26,1.53,6.13,6.81,10.77,12.66,13.15s12.27,2.82,18.58,3.16c2.88.16,6.14.5,7.88,2.8,3.93,5.17-4.11,13.46-.23,18.67a8.29,8.29,0,0,0,3.7,2.51,25.21,25.21,0,0,0,26.41-5.23c1.82-1.78,3.45-4.42,2.42-6.75-.62-1.39-2-2.23-3.17-3.22a25.19,25.19,0,0,1-5.12-6.94L1193,592.62a172.67,172.67,0,0,0-10.16-16.26c-3.56-4.86-16.45-23.18-22.87-23.1C1153.05,553.36,1144,570.65,1141.72,575.89Z"/><text class="cls-34" transform="translate(628.61 1570.37)">INSTAPET</text><line class="cls-35" x1="641.34" y1="1443.67" x2="1307.97" y2="1443.67"/><path class="cls-9" d="M1116,1036.78s3.11,50.21-5.17,83.34l15.55-32.76Z"/></svg>